<svg version="1" xmlns="http://www.w3.org/2000/svg" width="682.667" height="682.667" viewBox="0 0 512.000000 512.000000"><path d="M71.4 17.9c-1.1.5-3.2 2.3-4.6 4-4.4 5.2-3.4 10 5.6 27.9L80 65l-5.5 5.7c-6 6-9.3 11.5-10.1 16.6-.6 4.3-.5 13.7.2 14.8.3.5.1.9-.4.9s-.6 1.9-.3 4.2c.4 2.4.4 6 0 8-.3 2.1-.3 3.8 0 3.8s.5 2.8.4 6.2c-.4 12.7-.4 19 0 19.5.3.2.1 1.9-.3 3.8s-.5 3.6-.2 3.9c.3.3.4 2.9.4 5.8-.3 12.7-.3 18 .1 18.5.3.2.1 2-.3 3.9s-.5 3.6-.1 3.8c.3.2.4 3.8.1 8-.3 4.2-.3 7.6 0 7.6s.3 3.1 0 7c-.3 3.8-.3 7 .1 7 .3 0 .3 2.1 0 4.7-.4 2.7-.4 6.7-.1 9 .4 2.4.3 4.3-.1 4.3s-.3 1.5.1 3.4.4 4-.1 4.7c-.4.7-.5 1.7-.3 2.1.3.5.5 2.7.6 5.1 0 8.5 2.8 11.4 16.6 17.1 3.5 1.5 9.8 4.3 14 6.3 4.2 2 8.2 3.8 8.7 3.9.6.1 7.5 3.1 15.5 6.6 8 3.6 15.6 6.5 17 6.6 2.3.1 12.2-3.3 22.5-7.8 2.2-.9 6.1-2.5 8.7-3.5 8.1-3 9.2-5 14.3-25 2.5-9.9 4.8-19.1 5.1-20.5.2-1.4.7-3.2 1-4 .3-.8.8-2.9 1.1-4.5 1.5-8.9 7.1-15.5 17.2-20.4 3.5-1.7 6.9-3.6 7.7-4.2.8-.6 1.4-.8 1.4-.5 0 .4 2-.5 4.3-1.9 2.4-1.4 4.6-2.5 4.8-2.5.2 0 .3 4.2.2 9.2-.1 5.1-.2 14.7-.2 21.3 0 6.6-.1 13.3-.2 15 0 1.6-.1 3.6 0 4.2.3 3.8.1 5.7-1.4 12.3-2.1 9.4-9.8 20.8-18.6 27.3-2.1 1.6-29.5 15.9-30.9 16.2-.3 0-9.5 4.7-20.5 10.3-22.8 11.6-31.5 17.9-39.5 28.8-4.2 5.6-12.7 19.9-12 19.9.1 0-.5 2.5-1.4 5.6-2.6 8.8-2.7 9.7-3.2 21.4-.6 13-.6 20.4.2 21.6.3.5.1.9-.4.9s-.6 1.9-.3 4.3c.4 2.3.4 6.1.1 8.4-.4 2.4-.4 4.3-.1 4.3.4 0 .5 2 .3 4.5l-.4 4.5h160c157.5 0 160 0 160.5-1.9.3-1.1.3-2.2 0-2.5-.5-.5-.6-5.1-.3-22 .1-3.7-.1-7-.3-7.3-.3-.2-.1-1.9.3-3.8s.5-3.6.2-3.9c-.3-.3-.4-2.9-.4-5.8.3-12.7.3-18-.1-18.5-.3-.2-.1-1.9.3-3.8s.6-3.6.3-3.9c-.7-.6-.9-20.6-.2-20.6.3 0 .3-2-.1-4.5s-.3-4.8.2-5.1c.4-.3.6-.9.3-1.4-.7-1.2-1-14.8-.3-15.5.3-.3.2-2.3-.2-4.5-.4-2.1-.4-4.4.1-5.1.4-.7.5-1.7.3-2.1-.5-.8-.7-8.3-.4-22.2.1-3.7-.1-7-.3-7.3-.3-.2-.1-1.9.3-3.8s.5-3.6.2-3.9c-.3-.3-.4-2.9-.4-5.8.3-12.7.3-18-.1-18.5-.3-.2-.1-2 .3-3.9s.5-3.6.1-3.8c-.3-.2-.4-4.7-.1-10 .3-5.3.3-9.6 0-9.6s-.5-4.4-.6-9.8c-.1-5.3-.4-12.2-.7-15.2-.9-8.4-4.5-26.1-6.7-32.4-1-3.1-1.6-5.6-1.3-5.6.3 0 0-.6-.6-1.3-.6-.8-.8-1.7-.4-2 .3-.4.1-.7-.6-.7-.6 0-1.1-.6-1-1.3.5-3.2-11.3-27.2-19.5-39.6-3.1-4.7-5.6-8.8-5.6-9.3 0-.4-.4-.8-.8-.8-.5 0-2.4-2.1-4.2-4.8-4.8-6.7-29.8-31.2-31.9-31.2-.3 0-1.3-.9-2.1-2s-1.9-2-2.5-2c-.6 0-2.2-1.1-3.7-2.5s-2.9-2.5-3.2-2.5c-.3 0-2.9-1.5-5.8-3.4-11.4-7.2-37.2-18.9-44.7-20.3-1.4-.2-2.8-.6-3.3-.9-.5-.3-2.1-.8-3.6-1-1.5-.3-5.2-1.1-8.2-1.9-3-.7-7.4-1.6-9.8-2-2.3-.4-5.4-.9-7-1.2-4.6-1-174.6-1.3-176.8-.4zm55.4 98.4c2.2 1.4 4.9 4.1 6.1 6 2.9 4.7 3.7 13.1 1.7 17.9-1.6 3.7-7.6 10.7-9.3 10.9-.4 0-1.7.3-2.8.6-6 1.6-11.1 1.3-15.5-1-14.5-7.6-14.1-28.9.8-35.8 5.4-2.6 14-1.9 19 1.4zM71.5 450c-3.4 1.4-6.3 5.3-7.3 9.7-.6 2.4-.7 4.3-.3 4.3.3 0 .5 2.4.3 5.2-.9 17.8.3 23 6.1 26.1 3 1.6 15.4 1.7 186.9 1.5l183.8-.3 3.2-3.2c2.6-2.6 3.3-4.1 3.4-7.8.1-2.6.4-4.8.7-5.1.3-.3.2-1.8-.2-3.2-.4-1.5-.4-3.9 0-5.4.4-1.5.5-2.9.3-3.1-.3-.2-.6-3.1-.8-6.4-.3-6.8-2.5-10.6-7-12.3-3.5-1.2-366-1.3-369.1 0z"/></svg>
