<svg version="1" xmlns="http://www.w3.org/2000/svg" width="682.667" height="682.667" viewBox="0 0 512.000000 512.000000"><path d="M71.5 31.9c-1.1.5-3.1 2.1-4.5 3.6-3.3 3.5-3.3 11.1.1 17.5 1.3 2.5 2.4 4.7 2.4 5 .1.3 2.4 5.1 5.3 10.7L80 78.9l-6 6.3c-6.2 6.5-9.1 11.4-9.4 15.4 0 1.3-.4 2.4-.7 2.4-.3 0-.3 1.9 0 4.2.4 2.4.4 6 0 8-.3 2.1-.3 3.8 0 3.8s.5 2.8.4 6.2c-.4 12.7-.4 19 0 19.5.3.2.1 1.9-.3 3.8s-.5 3.6-.2 3.9c.3.3.4 2.9.4 5.8-.3 12.7-.3 18 .1 18.5.3.2.1 2-.3 3.9s-.5 3.6-.1 3.8c.3.2.4 3.8.1 8-.3 4.2-.3 7.6 0 7.6s.3 3.1 0 7c-.3 3.8-.3 7 .1 7 .3 0 .3 2.1 0 4.7-.3 2.7-.4 6.6-.1 8.8.3 2.2.2 5.5-.1 7.2-.4 1.8-.4 3.3 0 3.3s.5 2.1.2 4.7c-.4 2.7-.4 6.7-.1 9 .4 2.4.3 4.3-.2 4.3-.4 0-.5.6-.2 1.3.2.7.6 3.1.8 5.3.2 2.1.4 4.4.5 5 .2 2.1 4.6 6 8.6 7.6 2.2.9 6.3 2.7 9 3.9 2.8 1.3 5.3 2.2 5.8 2.1.4-.1.7.2.7.8 0 .5.5 1 1.1 1 .5 0 10.7 4.3 22.4 9.5 11.8 5.2 22.4 9.5 23.6 9.5 1.7 0 21.5-7.4 32.9-12.3 1.4-.6 2.8-1.1 3.2-1.1 2.7-.4 9-18.3 12.4-35.6 1.3-6.7 5.8-22.8 6.9-25 2-3.8 7.4-8.5 13.5-11.6 3-1.5 5.7-2.8 6-2.9.3-.1 3.3-1.5 6.7-3.3 6.3-3.2 7.8-2.9 6.3 1.3-.4 1.1-.4 2.9 0 4 .3 1.1.4 3.3.1 4.9-.3 1.6-.4 6-.1 9.8.3 3.7.2 6.8-.1 6.8-.3 0-.3 2 .1 4.5s.3 4.8-.2 5.1c-.4.3-.6 1-.2 1.5.7 1.2.2 18.4-.5 18.4-.2 0-.4 1.1-.7 2.5-.7 4-4.5 13-5.6 13-.5 0-.7.4-.4.8.7 1.1-8.2 10.6-12.8 13.7-3.3 2.3-17.2 9.7-18.6 10-.3.1-3.9 1.9-8 4s-7.7 3.9-8 4c-.3.1-7 3.4-15 7.5s-14.7 7.4-15 7.5c-2.6.5-21.8 15.2-21.9 16.7-.1.4-1.4 2.1-3.1 3.8-1.6 1.7-3 3.4-3 3.8 0 .5-.9 1.8-2 3-1.2 1.2-1.7 2.2-1.3 2.2.4 0 .4.4-.2.8-2.4 1.8-8.6 17.4-9.9 25.2-1.8 10.3-2.2 19.3-1 21.2.3.4.1.8-.4.8s-.6 1.9-.2 4.3c.3 2.3.3 5.6-.1 7.4-.3 1.7-.3 3.7.1 4.3.4.6.4 2.8.1 4.8-.4 2-.4 5.4-.1 7.4.4 2 .3 4.2 0 4.9-.4.6-.4 2.3-.1 3.8l.7 2.6 159.7.3 159.7.2v-2.7-4.6c0-.9.1-3.3.1-5.2v-4.8c0-.6-.1-4.6-.1-8.7-.1-4.1-.1-10.6 0-14.4.1-3.7-.1-7-.3-7.3-.3-.2-.1-1.9.3-3.8s.5-3.6.2-3.9c-.3-.3-.4-2.9-.4-5.8.3-12.7.3-18-.1-18.5-.3-.2-.1-1.9.3-3.8s.6-3.6.3-3.9c-.7-.6-.9-20.6-.2-20.6.3 0 .3-2-.1-4.5s-.3-4.8.2-5.1c.4-.3.6-.9.3-1.4-.7-1.2-1-14.8-.3-15.5.3-.3.2-2.3-.2-4.5-.4-2.1-.4-4.4.1-5.1.4-.7.5-1.7.3-2.1-.5-.8-.7-8.3-.4-22.2.1-3.7-.1-7-.3-7.3-.3-.2-.1-1.9.3-3.8s.5-3.6.2-3.9c-.3-.3-.4-2.9-.4-5.8.3-12.7.3-18-.1-18.5-.3-.2-.1-1.9.3-3.8s.6-3.6.4-3.8c-.2-.2-.6-6.9-.9-14.8-.3-7.9-.7-15.7-.9-17.4-1.1-6.9-2-13-2.1-13.5-.9-3.6-2.6-12.1-2.5-12.5 0-.3-.7-1.9-1.6-3.6-.8-1.7-1.3-3.3-1-3.6.3-.3-.1-1.8-.9-3.4-.8-1.5-1.7-3.6-1.8-4.6-.4-1.7-.8-2.9-3.9-10.1-.6-1.5-1.2-2.9-1.3-3.2-.4-1.5-10.7-21.2-11.5-22-.3-.3-2.7-3.9-5.5-8-10.5-15.7-24.4-30.6-40.1-42.9-4.3-3.4-8.7-6.9-9.7-7.7-.9-.8-2-1.4-2.3-1.4-.3 0-3.2-1.8-6.5-4s-6.2-4-6.4-4c-.3 0-4.8-2.2-10.2-4.8-13.5-6.6-34.9-13.9-46.4-15.7-1.6-.3-4.4-.8-6.1-1.1-1.8-.3-5.1-.8-7.3-1.1-6.7-.9-173.9-1.3-176-.4zm53.2 97.2c4.4 2.1 10.3 9 10.3 12 0 1 .5 2.1 1 2.4.6.4.8 1 .5 1.5-.3.5-.8 2.7-1 4.9-.2 2.1-1.3 5.4-2.4 7.2-2.3 3.8-8.9 9.1-10.2 8.3-.5-.3-.9 0-.9.5 0 1.8-12.5.7-15.7-1.4-4.1-2.6-8.2-7.5-9.2-11-1.3-5-.5-13.1 1.7-16.7 2.3-3.8 7.3-7.7 10.4-8.3 1.1-.3 2.3-.7 2.6-1 1.3-1.2 8.9-.3 12.9 1.6zM71 464.1c-1.4.5-3.4 2.3-4.4 4-2 3.4-3.8 9.9-2.7 9.9.3 0 .6 2 .6 4.5s-.3 4.5-.7 4.5c-.4 0-.5.6-.3 1.2.3.7.6 4.5.8 8.4.5 8.3 2.4 11.6 7.7 13.4 2.6.8 52.4 1 186.2.8l182.7-.3 2.9-2.8c3.6-3.5 4.9-7.8 4.2-14-.3-2.6-.2-4.7.2-4.7s.5-.6.3-1.2c-.3-.7-.6-5-.8-9.6-.3-7.8-.5-8.4-3.7-11.7l-3.4-3.5-183.5.1c-111.7 0-184.6.4-186.1 1z"/></svg>