<svg version="1" xmlns="http://www.w3.org/2000/svg" width="682.667" height="682.667" viewBox="0 0 512.000000 512.000000"><path d="M71.5 31.9c-1.1.5-3.1 2.1-4.5 3.6-2 2.2-2.5 3.6-2.4 7.8.1 4.4 1.3 7.6 7.7 20.5L80 79.1l-5 5c-2.7 2.7-5.7 6.2-6.8 7.7-2.3 3.2-5.3 11.8-4.4 12.6.5.6.7 8.7.2 11.1-.1.5-.1 1.4 0 2 .5 2.5.1 18.5-.5 19.5-.3.5-.3 1 .2 1 .4 0 .7 2.4.6 5.2-.4 8.1-.4 8.7-.3 17 .1 4.3-.1 8.2-.5 8.8-.3.5-.3 1 .2 1 .4 0 .7 2.4.6 5.2-.3 6.7-.3 8.9-.2 10.8v20c0 .8-.1 3.9-.1 6.8-.1 2.9 0 5.6.3 5.9.3.3.2 1.5-.3 2.8-.5 1.3-.6 2.6-.3 2.9.4.4.6 2.5.5 4.9-.4 9.7-.3 12.9.2 13.4.2.3.1 1.5-.4 2.8-.5 1.3-.6 2.6-.3 2.9.8.8.9 7.6.1 7.6-.4 0-.3 1.3.2 2.9.4 1.6.6 3.2.3 3.5-1 1 .9 6.5 3 8.8 1.2 1.3 4 3.1 6.2 4 2.2.9 6.9 3 10.5 4.6 3.6 1.7 16.4 7.4 28.4 12.7 18.4 8.2 22.5 9.6 25.4 9.1 3.1-.5 9.3-2.7 19.7-7.1 1.7-.7 5.8-2.5 9.3-3.9 3.5-1.4 7.1-3.5 8.2-4.8 1.5-1.9 3.4-7 4-11 .1-.4 1.3-4.9 2.6-10 1.4-5.1 2.8-10.4 3-11.8.3-1.4 1-4.3 1.6-6.5 1.3-4.4 1.2-4.1 2.7-10.9 2.5-10.5 6.1-14.1 22.9-22.4 11.5-5.8 12.2-6 12.3-3.9.1 1.2 0 2.6-.1 3.2-.1.5-.2 1.7-.2 2.5.1.8.1 6 .1 11.5 0 12.8.1 15.8.6 16.3.2.2 0 1.4-.5 2.7-.5 1.3-.6 2.6-.2 2.9.9 1 .2 13-1.2 20.1-1 4.6-4.7 13.5-5.7 13.5-.5 0-.9.9-.9 2.1 0 1.1-.4 1.7-1 1.4-.5-.3-1-.2-1 .4 0 1.3-5.6 7.1-10 10.3-1.9 1.4-16.8 9.1-33 17.3-16.2 8.1-32.4 16.3-35.9 18.3-6.1 3.4-24.1 19.7-24.1 21.8 0 .6-.8 1.9-1.8 3-1.8 2-5.7 9.8-8.7 17.4-2.5 6.6-5.1 22.8-4.4 27.8.3 2.4.2 4.5-.3 4.8-.5.3-.5 1-.2 1.6.4.5.6 3.4.5 6.4-.1 5.4-.2 7.3 0 9.6 0 .7-.1 3.7-.1 6.6-.1 2.9 0 5.6.3 5.8.3.3.1 1.9-.3 3.5-.5 1.6-.5 2.9 0 2.9.4 0 .6.9.3 2-.5 2 .3 2 159.5 2h160l.4-2.2c.2-1.3.1-3.7-.2-5.3-.4-1.7-.3-4 .1-5.1.4-1.2.5-2.5.2-2.8-.8-.8-.6-23.2.2-24.6.3-.5.3-1-.2-1-.4 0-.7-2.4-.6-5.2.4-8.1.4-8.7.3-17-.1-4.3.1-8.2.5-8.8.3-.5.3-1-.2-1-.4 0-.7-2.4-.6-5.2.4-8.2.4-8.7.4-19.3 0-12.7-.1-15.8-.6-16.3-.2-.2 0-1.4.5-2.7.5-1.3.6-2.6.3-2.9-.4-.4-.6-2.5-.5-4.9.4-9.7.3-12.9-.2-13.4-.2-.3-.1-1.5.4-2.8.5-1.3.6-2.6.3-2.9-.8-.8-.6-23.2.2-24.6.3-.5.3-1-.2-1-.4 0-.7-2.4-.6-5.2.4-8.1.4-8.7.3-17-.1-4.3.1-8.2.5-8.8.3-.5.3-1-.2-1-.7 0-.8-4.3-.2-12.5.3-5.3-1.1-32.6-2-37.5-.6-3-1.2-6.9-1.5-8.5-.2-1.7-.9-5.3-1.6-8-.6-2.8-1.3-5.7-1.5-6.5-.2-.8-1.3-4.4-2.5-8-1.2-3.6-2.3-7-2.5-7.5-.8-3.6-9.2-21.7-12.7-27.6-1.6-2.5-2.8-5.1-2.8-5.7 0-.6-.3-1.2-.8-1.4-.4-.2-2.3-2.8-4.2-5.8-1.9-3-3.9-6-4.5-6.7-.5-.6-2.1-2.6-3.5-4.4-8.9-11.8-20.9-23.9-33.5-33.8-4.4-3.4-8.8-6.9-9.8-7.7-.9-.8-1.9-1.4-2.2-1.4-.3 0-3.1-1.7-6.2-3.7-5.4-3.5-14.6-8.2-25.4-13.1-5.5-2.5-22.3-8.2-25.8-8.8-1.4-.3-3.5-.8-4.6-1.1-2.7-.9-5.5-1.5-20-4-5.2-.9-174.9-1.3-177-.4zm53.2 97.2c4.4 2.1 10.3 9 10.3 12 0 1 .5 2.1 1 2.4.6.4.8 1.1.4 1.6-.3.6-.7 2.7-.9 4.7-.5 6.1-6.9 14.6-11.8 15.7-.7.1-2 .5-3 1-2.6 1.1-11.5-.1-14.5-2.1-4-2.5-8.1-7.5-9.1-10.9-1.3-4.5-.5-13.3 1.5-16.3 1.5-2.5 7.2-8.1 8.4-8.3 2.7-.4 4.3-.8 4.8-1.3 1.3-1.3 8.9-.5 12.9 1.5zM70.9 464.1c-3.8 1.4-8 10-6.9 14.1.2 1 .2 7.6 0 8.5-.1.5-.2 1.2-.1 1.7.1.6.3 4.2.4 8.1.3 8.3 2.3 11.9 7.7 13.5 2.4.8 60.4 1 186.2.8l182.7-.3 2.9-2.8c2.8-2.7 5.6-9 4.4-10.1-.5-.6-.6-6.6-.2-8.4.1-.4.2-1.1.1-1.6s-.3-4.7-.5-9.3c-.2-7.9-.4-8.5-3.6-11.8l-3.4-3.5-183.5.1c-113.4 0-184.6.4-186.2 1z" fill="#008c8c"/></svg>