<svg version="1" xmlns="http://www.w3.org/2000/svg" width="682.667" height="682.667" viewBox="0 0 512.000000 512.000000"><path d="M74.4 35.4c-3.5 1.5-6.4 5.1-6.4 7.8 0 1 3.4 8.6 7.5 16.8 9.6 19.1 9.7 20.5 1.9 28-10.7 10.4-9.9 2.9-10.2 93-.2 52.2 0 79.7.7 82.1.6 1.9 2.1 4.4 3.3 5.5 2 1.8 59.3 27.8 64 29.1 2.6.8 32.8-11.6 35.9-14.6 2.1-2.2 3.6-6.8 8.9-28.1 3.4-14 7.1-27.1 8.1-29.1 2.8-5.6 9.2-10.6 21.1-16.5 19-9.3 17.8-11.1 17.8 27.1 0 35.5-.5 38.8-7.8 50.1-6.6 10.2-11 13.1-49.2 32.4-21.5 10.8-37.8 19.7-41.2 22.5-12.3 9.7-22.5 25.7-26.9 42-1.8 6.9-2.2 11.7-2.6 34.2l-.6 26.3h314.4l-.4-117.8c-.3-104.9-.5-118.9-2.1-128.4-14.2-89.3-84.6-155-174.1-162.7-6.9-.6-43.1-1.1-85.5-1.1-59.7.1-74.1.3-76.6 1.4zm53.4 90.5c8.1 4.2 11.2 10 11.2 21.1 0 8.5-1.2 12.3-5.4 16.8-4.1 4.6-8.9 6.2-17.9 6.2-7.9 0-8.8-.2-13.3-3.3-6.9-4.6-9.4-9.9-9.4-19.7 0-9.8 2.5-15.1 9.4-19.8 4.5-3 5.4-3.2 13.3-3.2 6.3 0 9.3.5 12.1 1.9zM74.3 467.5c-5.1 2.2-6.6 5.6-7.1 15.6-.6 12.3.3 17.6 3.8 21.1l2.8 2.8h364.4l2.8-2.8c3.5-3.5 4.4-8.8 3.8-21.1-.5-10.1-2-13.5-7.3-15.7-5.1-2.1-358.4-2-363.2.1z"/></svg>
